{
  "accessors": [
    {
      "bufferView": 0,
      "componentType": 5126,
      "count": 1956,
      "max": [
        77.10297393798828,
        117.88644409179688,
        72.65985870361328
      ],
      "min": [
        -72.9166259765625,
        19.1645450592041,
        -126.53105163574219
      ],
      "name": "positions",
      "type": "VEC3"
    },
    {
      "bufferView": 1,
      "componentType": 5125,
      "count": 2994,
      "name": "pos_index",
      "type": "SCALAR"
    },
    {
      "bufferView": 2,
      "componentType": 5126,
      "count": 1956,
      "name": "normals",
      "type": "VEC3"
    },
    {
      "bufferView": 3,
      "componentType": 5126,
      "count": 1956,
      "name": "uvs",
      "type": "VEC2"
    }
  ],
  "asset": {
    "version": "2.0"
  },
  "bufferViews": [
    {
      "buffer": 0,
      "byteLength": 23472,
      "name": "positions",
      "target": 34962
    },
    {
      "buffer": 1,
      "byteLength": 11976,
      "name": "pos_index",
      "target": 34963
    },
    {
      "buffer": 2,
      "byteLength": 23472,
      "name": "normals",
      "target": 34962
    },
    {
      "buffer": 3,
      "byteLength": 15648,
      "name": "uvs",
      "target": 34962
    }
  ],
  "buffers": [
    {
      "byteLength": 23472,
      "name": "positions",
      "uri": "data:application/octet-stream;base64,"
    },
    {
      "byteLength": 11976,
      "name": "pos_index",
      "uri": "data:application/octet-stream;base64,"
    },
    {
      "byteLength": 23472,
      "name": "normals",
      "uri": "data:application/octet-stream;base64,"
    },
    {
      "byteLength": 15648,
      "name": "uvs",
      "uri": "data:application/octet-stream;base64,"
    }
  ],
  "extensionsUsed": [
    "KHR_materials_transmission"
  ],
  "images": [
    {
      "uri": "model_0_color.png"
    },
    {
      "uri": "model_0_metallicRoughness.png"
    },
    {
      "uri": "model_0_transmittance.png"
    }
  ],
  "materials": [
    {
      "doubleSided": true,
      "extensions": {
        "KHR_materials_transmission": {
          "transmissionFactor": 1.0,
          "transmissionTexture": {
            "index": 2
          }
        }
      },
      "name": "Cup union",
      "pbrMetallicRoughness": {
        "baseColorTexture": {
          "index": 0
        },
        "metallicRoughnessTexture": {
          "index": 1
        }
      }
    }
  ],
  "meshes": [
    {
      "name": "Cup union",
      "primitives": [
        {
          "attributes": {
            "NORMAL": 2,
            "POSITION": 0,
            "TEXCOORD_0": 3
          },
          "indices": 1,
          "material": 0,
          "mode": 4
        }
      ]
    }
  ],
  "nodes": [
    {
      "mesh": 0,
      "name": "Cup union"
    }
  ],
  "scene": 0,
  "scenes": [
    {
      "nodes": [
        0
      ]
    }
  ],
  "textures": [
    {
      "source": 0
    },
    {
      "source": 1
    },
    {
      "source": 2
    }
  ]
}
